<?xml version="1.0" standalone="no"?>
<!DOCTYPE svg PUBLIC "-//W3C//DTD SVG 20010904//EN"
 "http://www.w3.org/TR/2001/REC-SVG-20010904/DTD/svg10.dtd">
<svg version="1.0" xmlns="http://www.w3.org/2000/svg"
 width="512.000000pt" height="512.000000pt" viewBox="0 0 512.000000 512.000000"
 preserveAspectRatio="xMidYMid meet">

<g transform="translate(0.000000,512.000000) scale(0.100000,-0.100000)"
fill="#000000" stroke="none">
<path d="M1292 4980 c-278 -35 -562 -165 -772 -354 -467 -420 -637 -1114 -424
-1727 20 -57 71 -174 113 -259 349 -699 986 -1433 1839 -2118 193 -156 496
-382 510 -382 24 0 503 369 732 564 368 314 764 711 1021 1026 330 403 620
880 718 1180 138 418 107 881 -84 1260 -143 284 -386 530 -664 670 -316 158
-680 185 -993 74 -118 -42 -279 -130 -390 -214 -94 -71 -261 -232 -317 -305
l-22 -30 -36 45 c-64 80 -226 234 -318 302 -163 122 -376 219 -556 253 -102
19 -266 26 -357 15z"/>
</g>
</svg>
