<?xml version="1.0" standalone="no"?>
<!DOCTYPE svg PUBLIC "-//W3C//DTD SVG 20010904//EN"
 "http://www.w3.org/TR/2001/REC-SVG-20010904/DTD/svg10.dtd">
<svg version="1.0" xmlns="http://www.w3.org/2000/svg"
 width="512.000000pt" height="512.000000pt" viewBox="0 0 512.000000 512.000000"
 preserveAspectRatio="xMidYMid meet">

<g transform="translate(0.000000,512.000000) scale(0.100000,-0.100000)"
fill="#000000" stroke="none">
<path d="M2482 5109 c-18 -5 -574 -371 -1235 -812 -1135 -757 -1203 -805
-1225 -847 -36 -70 -27 -120 39 -222 63 -96 116 -158 135 -158 8 0 14 -1 14
-2 0 -2 -9 -32 -20 -66 -11 -35 -20 -81 -20 -101 0 -77 47 -189 98 -235 l21
-19 -39 -45 c-54 -61 -85 -160 -76 -243 7 -71 44 -153 85 -193 l30 -29 -31
-36 c-105 -119 -114 -283 -22 -417 l44 -64 -34 -44 c-51 -67 -71 -129 -71
-216 1 -84 22 -143 76 -211 l31 -39 -31 -39 c-55 -69 -75 -127 -76 -216 0 -90
26 -161 83 -226 l31 -36 -30 -29 c-16 -15 -42 -53 -57 -84 -23 -47 -27 -67
-27 -140 1 -72 5 -94 28 -141 32 -66 108 -142 175 -172 l47 -22 2135 0 2135 0
47 22 c67 30 143 106 175 172 23 47 27 69 28 141 0 73 -4 93 -27 140 -15 31
-41 69 -57 84 l-30 29 31 36 c57 65 83 136 83 226 -1 89 -21 147 -76 216 l-31
39 31 39 c54 68 75 127 76 211 0 87 -20 149 -71 216 l-34 44 44 64 c92 134 83
298 -22 417 l-31 36 30 29 c41 39 78 122 85 192 10 92 -32 210 -95 266 l-21
20 28 30 c41 44 58 75 76 136 21 71 20 115 -4 192 -11 34 -20 64 -20 66 0 1 6
2 14 2 19 0 72 62 135 158 66 102 75 152 39 222 -22 42 -89 89 -1203 833 -649
434 -1198 798 -1220 809 -45 24 -143 33 -193 17z m923 -705 c1206 -806 1530
-1024 1533 -1034 6 -16 -90 -150 -102 -143 -6 4 -516 343 -1134 755 -617 411
-1131 748 -1141 748 -19 0 -357 -222 -1683 -1103 -328 -218 -600 -397 -605
-397 -4 0 -29 33 -54 73 l-46 72 1181 788 c1003 669 1186 787 1211 785 20 -2
311 -191 840 -544z m-642 1 l202 -135 -405 0 -405 0 200 134 c110 74 201 135
203 135 1 1 93 -60 205 -134z m715 -477 l257 -173 -588 -3 c-323 -1 -851 -1
-1175 0 l-587 3 255 172 255 172 663 0 662 1 258 -172z m773 -515 l252 -168
-972 -3 c-534 -1 -1408 -1 -1942 0 l-972 3 249 167 249 167 1443 0 1442 1 251
-167z m-3664 -359 c84 -40 119 -156 71 -238 -27 -47 -95 -86 -147 -86 -79 0
-156 70 -167 152 -18 130 122 229 243 172z m3718 -1 c-41 -98 -46 -183 -15
-265 11 -29 20 -54 20 -55 0 -2 -787 -3 -1750 -3 -962 0 -1750 1 -1750 3 0 1
9 26 20 55 31 82 26 167 -15 265 -7 16 80 17 1745 17 1665 0 1752 -1 1745 -17z
m384 -4 c58 -32 86 -82 86 -150 -1 -49 -5 -64 -31 -96 -59 -74 -136 -92 -215
-50 -119 63 -117 241 3 300 46 23 113 21 157 -4z m-4099 -511 c63 -32 92 -85
87 -159 -4 -67 -31 -111 -87 -139 -69 -35 -139 -24 -197 32 -64 62 -68 158
-10 225 58 66 130 80 207 41z m3715 5 c-27 -64 -34 -95 -34 -153 0 -58 7 -89
34 -152 7 -17 -4 -18 -143 -18 l-150 0 -6 35 c-8 43 -59 103 -103 121 -26 11
-141 14 -572 14 -479 0 -545 -2 -582 -16 -48 -20 -99 -84 -99 -126 l0 -28
-129 0 -129 0 -6 35 c-8 43 -59 103 -103 121 -26 11 -128 14 -491 14 -455 0
-458 0 -502 -22 -51 -26 -79 -61 -89 -109 l-7 -34 -193 -3 c-182 -2 -193 -1
-186 15 41 98 46 183 15 265 -11 29 -20 54 -20 56 0 1 788 2 1751 2 1664 0
1751 -1 1744 -17z m368 3 c18 -7 47 -29 64 -49 120 -137 -44 -340 -207 -257
-56 28 -83 72 -87 139 -5 74 24 127 87 159 50 25 96 28 143 8z m-2453 -1351
l0 -1025 -425 0 -425 0 0 1025 0 1025 425 0 425 0 0 -1025z m1620 685 l0 -340
-510 0 -510 0 0 340 0 340 510 0 510 0 0 -340z m-3234 138 c52 -36 77 -90 72
-154 -8 -90 -62 -144 -151 -152 -192 -16 -258 238 -83 320 51 23 116 18 162
-14z m584 -138 l0 -170 -188 0 -189 0 18 53 c25 70 24 163 -1 229 -11 29 -20
54 -20 56 0 1 86 2 190 2 l190 0 0 -170z m1458 -2 l2 -168 -130 0 -130 0 0
170 0 171 128 -3 127 -3 3 -167z m1662 170 c0 -2 -9 -27 -20 -56 -26 -68 -26
-165 -1 -232 l19 -50 -149 0 -149 0 0 170 0 170 150 0 c83 0 150 -1 150 -2z
m366 -17 c175 -79 109 -335 -83 -319 -89 8 -143 62 -151 151 -11 133 114 222
234 168z m-4124 -501 c44 -13 93 -52 113 -91 18 -33 19 -96 4 -136 -51 -135
-250 -141 -310 -10 -23 53 -24 91 0 142 22 49 48 73 98 91 47 16 49 16 95 4z
m638 -165 l0 -175 -190 0 c-104 0 -190 1 -190 3 0 1 9 26 20 55 13 33 20 76
20 117 0 41 -7 84 -20 117 -11 29 -20 54 -20 56 0 1 86 2 190 2 l190 0 0 -175z
m1461 136 c9 -42 36 -79 79 -108 l33 -23 567 0 567 0 34 23 c38 25 79 90 79
125 0 22 1 22 150 22 83 0 150 -1 150 -2 0 -2 -9 -27 -20 -56 -26 -69 -26
-165 0 -234 11 -29 20 -54 20 -55 0 -2 -432 -3 -960 -3 l-960 0 0 175 0 176
127 -3 127 -3 7 -34z m2012 25 c50 -18 76 -42 98 -91 24 -51 23 -89 0 -142
-60 -131 -259 -125 -310 10 -35 92 11 189 106 222 47 17 59 17 106 1z m-4063
-528 c50 -34 72 -71 78 -127 6 -63 -9 -101 -58 -144 -87 -79 -223 -44 -266 68
-29 78 6 173 77 208 50 25 129 22 169 -5z m590 -148 l0 -170 -190 0 c-104 0
-190 1 -190 3 0 1 9 26 20 55 26 68 26 165 1 232 l-19 50 189 0 189 0 0 -170z
m3099 120 c-25 -67 -25 -164 1 -232 11 -29 20 -54 20 -55 0 -2 -432 -3 -960
-3 l-960 0 0 170 0 170 959 0 959 0 -19 -50z m398 33 c73 -34 109 -129 79
-208 -43 -112 -179 -147 -266 -68 -49 43 -64 81 -58 144 12 118 135 185 245
132z m-4100 -509 c84 -40 119 -156 71 -238 -27 -47 -95 -86 -147 -86 -79 0
-156 70 -167 152 -18 130 122 229 243 172z m603 -154 l0 -170 -190 0 c-104 0
-190 1 -190 3 0 1 9 26 20 55 31 82 26 167 -15 265 -7 16 6 17 184 17 l191 0
0 -170z m3115 153 c-41 -98 -46 -183 -15 -265 11 -29 20 -54 20 -55 0 -2 -432
-3 -960 -3 l-960 0 0 170 0 170 961 0 c912 0 961 -1 954 -17z m384 -4 c58 -32
86 -82 86 -150 -1 -49 -5 -64 -31 -96 -59 -74 -136 -92 -215 -50 -119 63 -117
241 3 300 46 23 113 21 157 -4z"/>
</g>
</svg>
