<?xml version="1.0" standalone="no"?>
<!DOCTYPE svg PUBLIC "-//W3C//DTD SVG 20010904//EN"
 "http://www.w3.org/TR/2001/REC-SVG-20010904/DTD/svg10.dtd">
<svg version="1.0" xmlns="http://www.w3.org/2000/svg"
 width="512.000000pt" height="512.000000pt" viewBox="0 0 512.000000 512.000000"
 preserveAspectRatio="xMidYMid meet">

<g transform="translate(0.000000,512.000000) scale(0.100000,-0.100000)"
fill="#000000" stroke="none">
<path d="M1675 4556 c-167 -44 -298 -118 -414 -234 -119 -119 -201 -262 -242
-424 -19 -74 -22 -119 -26 -425 l-5 -342 -468 -3 c-444 -3 -469 -4 -489 -22
-27 -25 -28 -79 -1 -106 19 -19 33 -20 489 -20 l470 0 3 -165 c3 -154 4 -166
25 -186 26 -26 77 -28 103 -4 18 16 19 50 22 593 4 555 5 580 26 655 69 251
252 442 502 527 92 31 279 39 383 16 274 -61 499 -286 567 -566 18 -76 20
-118 20 -402 l0 -318 -95 0 -95 0 0 313 c0 344 -4 378 -62 496 -39 82 -150
195 -233 238 -312 162 -681 6 -798 -337 l-22 -65 -3 -1057 -3 -1057 -36 21
c-20 12 -62 46 -94 76 l-59 54 0 299 c0 286 -1 300 -20 319 -27 27 -81 26
-106 -1 -18 -20 -19 -42 -22 -323 l-3 -301 -37 -38 c-97 -100 -233 -158 -371
-159 -159 -2 -281 51 -402 175 -62 63 -81 77 -107 77 -35 0 -72 -38 -72 -75 0
-56 140 -188 272 -257 135 -70 313 -91 458 -54 94 24 216 87 283 146 l57 52
58 -52 c66 -59 188 -122 282 -147 85 -21 235 -21 320 2 103 27 191 75 291 157
l46 38 19 -22 c38 -42 158 -118 233 -147 236 -91 497 -44 689 125 l47 41 60
-49 c76 -61 191 -121 275 -143 85 -23 235 -23 320 -2 94 25 216 88 283 147
l57 52 49 -44 c216 -192 531 -227 778 -86 114 64 243 193 243 243 0 37 -37 75
-74 75 -26 0 -42 -11 -92 -64 -121 -129 -250 -188 -409 -188 -154 0 -263 49
-388 174 -102 101 -114 102 -199 13 -122 -129 -246 -187 -402 -187 -151 0
-279 55 -384 164 l-42 44 2 579 3 580 972 3 972 2 20 26 c34 43 26 86 -20 109
-23 12 -85 15 -333 15 l-304 0 -4 348 c-4 320 -6 353 -26 427 -95 343 -377
605 -718 665 -90 16 -298 8 -378 -14 -243 -68 -451 -230 -561 -438 -20 -38
-38 -68 -40 -68 -2 0 -20 30 -40 68 -89 168 -264 325 -443 398 -113 45 -172
57 -322 60 -128 4 -155 1 -235 -20z m2035 -142 c86 -20 232 -92 300 -148 112
-93 201 -228 251 -381 22 -66 23 -88 27 -412 l4 -343 -96 0 -96 0 0 95 c0 88
-2 98 -25 120 -13 14 -36 25 -50 25 -14 0 -37 -11 -50 -25 -23 -22 -25 -32
-25 -120 l0 -95 -410 0 -410 0 0 284 c0 301 6 358 45 443 32 71 128 166 202
201 52 24 70 27 163 27 97 0 110 -2 170 -31 160 -77 240 -213 240 -407 0 -69
3 -81 25 -102 13 -14 36 -25 50 -25 14 0 37 11 50 25 23 22 25 32 25 112 0
174 -52 305 -165 419 -75 75 -157 123 -255 149 -73 20 -213 19 -281 -1 -205
-60 -359 -228 -404 -439 -12 -59 -15 -222 -15 -1027 l0 -956 -55 -49 c-30 -27
-73 -59 -95 -72 l-40 -22 0 1033 c0 656 4 1057 10 1098 41 257 191 458 425
572 44 21 110 45 145 52 88 19 259 19 340 0z m-1648 -361 c93 -44 151 -100
196 -191 l37 -76 3 -328 3 -328 -411 0 -412 0 4 313 c4 298 5 315 28 372 36
94 82 154 158 207 75 52 136 69 237 66 77 -3 100 -8 157 -35z m578 -1263 l0
-190 -577 2 -578 3 -3 175 c-1 96 0 180 2 187 4 10 121 13 581 13 l575 0 0
-190z m0 -445 l0 -105 -577 2 -578 3 -3 103 -3 102 581 0 580 0 0 -105z m0
-494 l0 -238 -41 -6 c-54 -7 -155 8 -223 34 -79 29 -151 79 -222 154 -84 89
-99 88 -190 -5 -76 -78 -138 -122 -215 -151 -62 -24 -174 -39 -229 -32 l-40 6
0 238 0 239 580 0 580 0 0 -239z"/>
<path d="M520 920 c-31 -31 -25 -72 19 -127 75 -95 183 -171 313 -219 96 -35
269 -45 368 -20 89 22 213 85 287 145 l62 51 58 -50 c113 -97 273 -160 405
-160 60 0 69 3 87 26 24 31 26 43 10 78 -13 28 -55 46 -108 46 -110 0 -231 60
-340 168 -109 107 -122 108 -206 19 -119 -126 -224 -177 -382 -185 -84 -4
-113 -1 -171 17 -89 27 -204 103 -266 176 -41 47 -53 55 -82 55 -21 0 -42 -8
-54 -20z"/>
<path d="M2479 888 c-24 -28 -76 -75 -116 -105 -66 -49 -73 -57 -73 -88 0 -41
32 -75 70 -75 30 0 100 42 159 95 l41 37 49 -44 c126 -110 251 -159 421 -166
97 -4 129 -1 193 17 101 28 178 67 262 135 l68 54 61 -49 c72 -59 197 -123
281 -144 82 -21 235 -19 321 3 139 37 288 133 368 238 41 53 46 94 16 124 -40
40 -76 27 -154 -53 -128 -131 -251 -183 -420 -175 -156 8 -256 56 -378 184
-86 90 -101 88 -204 -15 -122 -121 -236 -171 -390 -171 -149 0 -267 52 -386
172 -67 67 -82 78 -112 78 -29 0 -41 -8 -77 -52z"/>
</g>
</svg>
