<?xml version="1.0" standalone="no"?>
<!DOCTYPE svg PUBLIC "-//W3C//DTD SVG 20010904//EN"
 "http://www.w3.org/TR/2001/REC-SVG-20010904/DTD/svg10.dtd">
<svg version="1.0" xmlns="http://www.w3.org/2000/svg"
 width="512.000000pt" height="512.000000pt" viewBox="0 0 512.000000 512.000000"
 preserveAspectRatio="xMidYMid meet">

<g transform="translate(0.000000,512.000000) scale(0.100000,-0.100000)"
fill="#000000" stroke="none">
<path d="M2431 4854 c-20 -25 -21 -40 -21 -210 0 -101 -2 -184 -4 -184 -2 0
-95 54 -207 120 -248 146 -274 156 -370 127 -24 -8 -193 -102 -376 -211 -352
-210 -361 -217 -341 -277 8 -25 44 -49 71 -49 15 0 71 32 427 244 221 131 270
157 295 153 38 -6 1222 -708 1253 -743 32 -37 30 -88 -7 -125 -52 -51 -80 -44
-280 75 -97 57 -351 209 -566 336 -288 170 -397 230 -415 228 -14 -2 -268
-148 -565 -325 -297 -176 -550 -326 -562 -332 -31 -16 -85 -14 -110 4 -34 24
-47 76 -30 117 12 29 41 50 180 132 192 115 213 140 166 200 -14 18 -30 26
-51 26 -39 0 -354 -186 -393 -232 -107 -126 -66 -318 82 -388 38 -18 60 -21
120 -18 l73 3 0 -57 0 -58 -35 0 c-43 0 -85 -37 -85 -75 0 -38 42 -75 85 -75
l35 0 0 -831 0 -831 -45 7 c-60 9 -129 33 -250 88 -161 73 -259 97 -391 97
-66 0 -74 -2 -93 -26 -26 -34 -27 -68 -1 -94 23 -23 40 -27 145 -34 101 -7
156 -23 306 -92 189 -86 354 -115 543 -94 121 14 199 37 337 101 148 68 235
89 378 89 152 0 218 -16 382 -88 169 -75 214 -88 345 -103 77 -8 131 -8 209 1
129 13 195 33 355 106 162 73 228 87 400 81 152 -4 205 -18 385 -101 155 -71
233 -88 405 -88 182 -1 265 18 453 102 144 65 236 90 330 90 111 0 159 56 106
124 -19 24 -26 26 -94 26 -132 0 -250 -31 -418 -109 -48 -23 -90 -41 -92 -41
-3 0 -5 160 -5 355 l0 355 56 0 c48 0 59 4 85 29 27 27 29 35 29 103 0 109
-22 174 -79 228 -62 61 -98 70 -279 70 -128 0 -153 -3 -171 -18 -33 -26 -31
-79 3 -109 26 -22 35 -23 167 -23 77 0 149 -5 160 -10 24 -13 49 -61 49 -95
l0 -25 -760 0 -760 0 0 65 0 65 454 0 c443 0 454 0 480 21 33 26 36 79 6 109
-19 19 -33 20 -480 20 l-460 0 0 240 0 240 38 0 c48 0 82 32 82 77 0 40 -39
73 -86 73 l-34 0 0 58 0 58 69 -4 c84 -5 125 7 180 54 62 54 85 105 85 189 0
80 -20 130 -76 181 -25 24 -405 256 -660 403 l-28 16 0 233 0 233 -25 24 c-33
34 -77 33 -104 -1z m-33 -974 l442 -263 0 -987 0 -988 -47 -16 c-83 -28 -221
-40 -330 -27 -54 7 -101 15 -104 19 -4 4 -9 45 -11 90 -3 74 -6 86 -27 103
-31 25 -69 24 -98 -3 -19 -17 -23 -32 -23 -76 0 -40 -3 -53 -12 -49 -182 82
-289 107 -463 107 l-125 0 0 155 0 155 300 0 300 0 0 -39 c0 -31 6 -44 26 -60
30 -24 43 -26 78 -10 36 17 49 58 44 143 -6 125 30 116 -448 116 -335 0 -410
-2 -426 -14 -18 -13 -19 -31 -24 -247 l-5 -232 -144 -64 c-151 -67 -237 -93
-308 -93 l-43 0 0 1008 0 1007 413 245 c226 134 439 261 472 282 l60 37 30
-18 c16 -9 229 -136 473 -281z m1942 -1904 l0 -374 -61 -7 c-133 -16 -266 12
-450 94 -182 80 -227 91 -400 98 -160 6 -256 -7 -375 -52 l-64 -24 0 319 0
320 675 0 675 0 0 -374z"/>
<path d="M1729 3831 c-19 -19 -29 -40 -29 -59 0 -32 -29 -68 -77 -93 -81 -44
-19 -165 67 -129 96 40 160 128 160 222 0 38 -5 50 -26 67 -36 28 -60 26 -95
-8z"/>
<path d="M1983 3850 c-91 -37 -27 -227 99 -291 64 -33 128 -4 128 57 0 25 -36
74 -55 74 -22 0 -65 59 -65 90 0 53 -57 91 -107 70z"/>
<path d="M1217 3236 c-100 -36 -109 -68 -105 -383 3 -277 3 -276 72 -327 27
-21 39 -21 697 -24 644 -2 672 -2 714 17 32 14 49 30 64 60 20 37 21 57 21
291 0 268 -4 294 -51 337 -46 41 -76 43 -739 43 -510 -1 -643 -4 -673 -14z
m371 -363 l2 -223 -165 0 -165 0 0 218 c0 120 3 222 7 226 4 3 77 5 162 4
l156 -3 3 -222z m462 2 l0 -225 -155 0 -155 0 0 225 0 225 155 0 155 0 0 -225z
m480 0 l0 -225 -165 0 -165 0 0 218 c0 120 3 222 7 225 3 4 78 7 165 7 l158 0
0 -225z"/>
<path d="M3304 2239 c-22 -11 -44 -48 -44 -73 0 -7 9 -25 21 -40 l20 -26 363
0 c351 0 363 1 381 20 25 28 23 76 -4 103 -21 22 -26 22 -369 24 -227 1 -354
-2 -368 -8z"/>
<path d="M3304 1948 c-22 -10 -44 -47 -44 -72 0 -7 9 -25 21 -40 l20 -26 359
0 c333 0 359 1 381 18 33 27 30 78 -5 109 l-27 23 -342 -1 c-214 0 -350 -4
-363 -11z"/>
<path d="M1173 1170 c-25 -10 -43 -39 -43 -68 0 -33 38 -72 71 -72 16 0 58
-12 92 -26 98 -42 164 -43 276 -4 103 36 110 36 231 -9 76 -28 125 -27 155 4
14 13 25 36 25 50 0 33 -42 75 -74 75 -14 0 -56 12 -93 26 -91 36 -196 38
-268 5 -79 -35 -121 -37 -194 -7 -72 29 -146 40 -178 26z"/>
<path d="M3476 1051 c-24 -26 -24 -78 1 -102 10 -11 37 -22 59 -25 21 -4 68
-17 104 -31 55 -22 76 -25 140 -20 46 3 92 12 120 26 58 27 131 27 190 0 25
-12 73 -23 106 -26 53 -5 64 -3 83 16 31 31 28 84 -5 110 -15 12 -40 21 -56
21 -16 0 -55 11 -88 25 -46 19 -77 25 -135 25 -58 0 -89 -6 -135 -25 -75 -31
-119 -31 -195 0 -76 31 -164 34 -189 6z"/>
<path d="M1963 688 c-13 -13 -23 -37 -23 -52 0 -37 41 -76 80 -76 17 0 58 -11
91 -26 85 -35 182 -35 270 0 78 32 119 33 197 1 33 -13 84 -25 113 -26 46 -2
55 1 76 25 28 33 29 56 3 89 -13 17 -34 27 -63 32 -23 4 -70 18 -104 31 -84
33 -164 32 -249 -2 -79 -31 -137 -33 -201 -4 -26 12 -75 24 -108 27 -54 5 -62
3 -82 -19z"/>
<path d="M352 445 c-25 -31 -27 -44 -11 -78 13 -28 48 -47 85 -47 13 0 51 -11
84 -25 82 -35 178 -35 260 0 75 31 129 32 205 0 114 -47 205 -27 205 44 0 41
-28 71 -75 77 -22 4 -69 17 -105 31 -55 22 -75 25 -145 20 -52 -3 -96 -12
-125 -25 -57 -27 -123 -27 -180 -1 -25 12 -75 24 -111 26 -63 5 -67 4 -87 -22z"/>
<path d="M4295 439 c-27 -4 -70 -16 -95 -28 -59 -27 -112 -26 -185 4 -75 31
-164 34 -188 7 -22 -25 -22 -85 1 -105 9 -8 40 -20 67 -26 28 -5 77 -20 110
-31 74 -27 176 -23 245 9 61 28 130 27 205 -4 115 -47 195 -27 195 49 0 41
-37 76 -81 76 -15 0 -49 9 -76 21 -60 26 -133 36 -198 28z"/>
</g>
</svg>
