<?xml version="1.0" standalone="no"?>
<!DOCTYPE svg PUBLIC "-//W3C//DTD SVG 20010904//EN"
 "http://www.w3.org/TR/2001/REC-SVG-20010904/DTD/svg10.dtd">
<svg version="1.0" xmlns="http://www.w3.org/2000/svg"
 width="512.000000pt" height="512.000000pt" viewBox="0 0 512.000000 512.000000"
 preserveAspectRatio="xMidYMid meet">

<g transform="translate(0.000000,512.000000) scale(0.100000,-0.100000)"
fill="#000000" stroke="none">
<path d="M3341 5109 c-25 -5 -78 -24 -119 -44 -221 -105 -332 -367 -253 -601
11 -32 18 -60 16 -62 -2 -2 -47 6 -102 17 -79 17 -133 38 -278 109 l-180 87
-85 0 c-93 0 -137 -16 -204 -76 -118 -103 -122 -305 -8 -422 59 -62 399 -227
565 -276 156 -45 141 -20 151 -263 l7 -164 -113 -89 c-165 -131 -213 -178
-238 -238 -23 -52 -23 -55 -16 -368 l7 -316 -166 -43 c-187 -49 -250 -80 -302
-148 -114 -150 -60 -367 111 -448 78 -36 136 -39 244 -10 l93 24 10 -26 c57
-155 163 -252 273 -252 131 0 249 112 367 345 33 66 62 121 63 122 1 2 189 53
417 114 228 61 588 157 801 214 253 68 408 115 449 136 191 96 303 330 258
540 -15 67 -45 99 -96 99 -20 0 -155 -31 -299 -70 -145 -38 -267 -70 -271 -70
-5 0 -66 85 -136 188 -70 103 -136 198 -147 209 -45 49 -92 73 -220 113 -143
45 -160 54 -144 70 7 7 32 5 77 -7 65 -17 70 -17 280 9 242 30 290 45 355 111
57 59 85 126 86 207 0 81 -15 127 -63 188 -45 56 -122 101 -190 109 -27 3
-114 -2 -193 -12 l-145 -17 -128 61 -127 61 56 61 c92 99 136 209 136 339 0
137 -47 247 -150 351 -120 122 -281 171 -449 138z m233 -223 c60 -29 104 -73
138 -139 19 -34 23 -58 23 -127 0 -69 -4 -93 -23 -127 -71 -135 -215 -200
-353 -160 -192 56 -276 280 -168 449 81 126 246 171 383 104z m-1036 -550
c158 -79 175 -85 322 -116 85 -17 295 -63 466 -100 l311 -69 158 -76 c177 -84
172 -84 360 -60 162 20 170 20 207 -14 43 -39 46 -98 6 -138 -25 -24 -39 -28
-228 -51 l-201 -25 -107 42 c-121 47 -146 47 -186 0 -17 -20 -27 -50 -36 -113
-7 -47 -16 -89 -19 -94 -6 -10 -528 -49 -536 -40 -3 3 -10 90 -15 194 -6 104
-12 203 -15 220 -9 53 -39 70 -210 118 -128 36 -198 63 -345 135 -102 49 -193
98 -202 108 -39 43 -25 127 25 151 44 21 79 11 245 -72z m1186 -1036 c36 -12
66 -25 66 -30 0 -25 -52 -170 -61 -170 -6 0 -80 20 -163 45 -84 25 -162 45
-173 45 -11 0 -103 -40 -204 -88 l-183 -88 -63 77 c-35 43 -63 82 -62 86 0 4
25 27 54 51 l55 43 147 10 c214 15 496 36 509 38 7 0 42 -8 78 -19z m394 -260
c78 -114 109 -166 100 -170 -21 -11 -188 -53 -192 -49 -33 42 -106 159 -106
170 -1 31 64 219 74 216 6 -2 62 -77 124 -167z m-1320 -88 l79 -99 6 -168 c4
-93 5 -170 3 -172 -6 -6 -189 -54 -192 -50 -2 2 -7 123 -10 269 -6 240 -5 269
10 292 9 14 19 26 21 26 3 0 40 -44 83 -98z m779 -19 l162 -47 41 -59 c22 -33
39 -62 36 -64 -10 -10 -717 -195 -723 -189 -3 3 -8 61 -11 129 l-5 123 159 76
c88 43 163 77 169 78 5 0 83 -21 172 -47z m1333 -134 c-17 -66 -71 -141 -126
-176 -39 -25 -150 -58 -559 -168 -280 -75 -625 -167 -765 -205 -1018 -274
-1202 -321 -1223 -314 -84 25 -100 143 -25 182 12 6 286 82 608 168 322 86
925 247 1340 359 415 111 756 201 758 200 2 -2 -2 -23 -8 -46z m-2021 -965
c-36 -59 -109 -134 -132 -134 -29 0 -100 111 -82 129 8 8 239 69 244 65 2 -2
-11 -29 -30 -60z"/>
<path d="M867 3435 c-404 -77 -698 -345 -837 -761 l-30 -92 0 -1251 c0 -1361
-3 -1293 55 -1319 38 -17 4972 -17 5010 0 55 25 55 21 55 613 0 592 0 588 -55
613 -14 7 -41 12 -58 12 -34 0 -78 21 -175 82 -139 89 -305 89 -444 0 -174
-111 -202 -111 -376 0 -139 89 -305 89 -444 0 -174 -111 -202 -111 -376 0
-139 89 -305 89 -444 0 -115 -73 -138 -82 -208 -82 -239 0 -483 77 -637 200
-208 166 -333 457 -333 772 0 94 2 102 27 132 29 34 73 122 73 147 0 11 18 18
71 26 127 20 232 91 282 193 17 36 22 62 22 130 0 74 -4 93 -31 150 -90 190
-334 350 -644 422 -116 26 -393 34 -503 13z m482 -214 c283 -71 501 -234 501
-375 0 -49 -48 -99 -109 -116 -37 -10 -51 -9 -90 5 -25 10 -65 19 -88 22 -37
4 -46 1 -74 -26 l-31 -31 8 -90 c6 -81 5 -93 -12 -112 -43 -48 -114 -58 -243
-36 -84 14 -113 5 -138 -47 -15 -31 -15 -41 -4 -85 19 -73 7 -127 -38 -172
-66 -65 -151 -70 -271 -14 -112 52 -165 25 -184 -94 -12 -74 -97 -130 -196
-130 -66 0 -107 16 -153 58 l-27 26 0 197 0 197 32 13 c18 8 67 14 108 14 63
0 85 -5 129 -27 70 -37 114 -37 152 1 39 40 41 97 3 134 -64 64 -194 102 -320
94 l-82 -5 29 69 c50 122 79 166 130 193 138 75 306 73 446 -5 70 -38 115 -38
154 0 40 40 41 97 2 135 -41 41 -164 96 -259 115 l-86 17 59 26 c140 62 237
79 423 74 102 -3 170 -11 229 -25z m24 -1083 c8 -140 43 -296 95 -421 167
-406 523 -640 1011 -664 140 -7 215 9 303 65 174 111 202 111 376 0 139 -89
305 -89 444 0 174 111 202 111 376 0 77 -49 167 -72 252 -65 84 7 138 27 213
78 77 53 116 69 166 69 52 0 81 -12 162 -66 37 -24 85 -50 106 -58 l38 -13 3
-196 2 -197 -74 49 c-95 62 -180 86 -274 78 -83 -7 -135 -27 -230 -89 -116
-75 -189 -77 -286 -7 -31 22 -82 52 -114 67 -50 24 -69 27 -157 27 -115 0
-151 -13 -268 -93 -65 -44 -73 -47 -136 -47 -61 0 -73 4 -127 38 -114 73 -177
98 -262 104 -100 6 -175 -17 -282 -87 -123 -81 -182 -80 -302 1 -97 66 -186
94 -282 86 -86 -6 -138 -26 -234 -89 -116 -75 -189 -77 -286 -7 -31 22 -82 52
-114 67 -50 24 -69 27 -157 27 -115 0 -151 -13 -268 -93 -65 -44 -73 -47 -136
-47 -61 0 -73 4 -127 38 -208 134 -353 141 -530 26 l-74 -49 0 541 c0 429 3
540 13 536 6 -3 37 -11 68 -18 l56 -12 6 -86 c16 -221 115 -441 271 -603 49
-52 59 -58 96 -58 76 0 123 76 89 143 -6 12 -28 40 -49 62 -126 133 -210 338
-210 513 0 57 1 59 37 76 68 32 123 86 169 164 1 2 19 -1 40 -6 22 -6 60 -13
87 -17 43 -6 47 -9 47 -33 0 -34 42 -220 65 -287 29 -86 96 -214 122 -235 28
-22 83 -26 114 -10 21 12 49 60 49 86 0 10 -17 52 -39 93 -48 95 -86 212 -107
336 l-16 97 51 50 c59 57 96 123 112 198 l11 50 42 0 43 0 6 -112z m-698
-1601 c109 -70 146 -82 260 -82 81 0 97 4 155 32 36 18 92 49 124 70 52 34 67
38 121 38 54 0 69 -4 121 -38 113 -73 177 -98 262 -104 100 -6 175 17 282 87
124 82 180 81 312 -5 102 -66 183 -90 278 -82 86 8 134 26 226 86 125 82 179
82 311 -3 107 -69 144 -81 258 -81 81 0 97 4 155 32 36 18 92 49 124 70 52 34
67 38 121 38 54 0 69 -4 121 -38 113 -73 177 -98 262 -104 100 -6 175 17 282
87 123 81 181 80 305 -1 42 -28 96 -58 121 -66 l44 -15 0 -129 0 -129 -2360 0
-2360 0 0 129 0 129 46 16 c25 8 73 34 106 57 88 60 115 70 179 66 49 -3 68
-11 144 -60z"/>
</g>
</svg>
