<?xml version="1.0" standalone="no"?>
<!DOCTYPE svg PUBLIC "-//W3C//DTD SVG 20010904//EN"
 "http://www.w3.org/TR/2001/REC-SVG-20010904/DTD/svg10.dtd">
<svg version="1.0" xmlns="http://www.w3.org/2000/svg"
 width="512.000000pt" height="512.000000pt" viewBox="0 0 512.000000 512.000000"
 preserveAspectRatio="xMidYMid meet">

<g transform="translate(0.000000,512.000000) scale(0.100000,-0.100000)"
fill="#000000" stroke="none">
<path d="M3600 4840 l0 -120 80 0 80 0 0 120 0 120 -80 0 -80 0 0 -120z"/>
<path d="M3197 4722 c-26 -26 -47 -52 -47 -58 0 -5 34 -43 75 -84 l75 -75 57
58 58 57 -75 75 c-41 41 -79 75 -85 75 -6 0 -32 -22 -58 -48z"/>
<path d="M4022 4697 c-39 -40 -72 -77 -72 -83 0 -13 92 -104 106 -104 5 0 43
34 84 75 l74 75 -54 55 c-30 30 -57 55 -60 55 -3 0 -38 -33 -78 -73z"/>
<path d="M3586 4630 c-63 -16 -153 -70 -197 -117 -22 -24 -55 -74 -72 -111
-29 -61 -32 -76 -32 -163 0 -90 2 -99 37 -171 45 -91 103 -147 196 -191 61
-29 76 -32 162 -32 86 0 101 3 162 32 93 44 151 100 196 191 35 72 37 81 37
172 0 91 -2 100 -37 172 -68 136 -188 217 -336 224 -42 2 -94 -1 -116 -6z
m168 -162 c86 -26 166 -136 166 -228 0 -124 -116 -240 -240 -240 -63 0 -114
23 -165 75 -102 101 -102 229 0 330 70 71 145 90 239 63z"/>
<path d="M2960 4240 l0 -80 120 0 120 0 0 80 0 80 -120 0 -120 0 0 -80z"/>
<path d="M4160 4240 l0 -80 120 0 120 0 0 80 0 80 -120 0 -120 0 0 -80z"/>
<path d="M3222 3897 c-39 -40 -72 -77 -72 -83 0 -13 92 -104 106 -104 5 0 43
34 84 75 l74 75 -54 55 c-30 30 -57 55 -60 55 -3 0 -38 -33 -78 -73z"/>
<path d="M3992 3917 l-52 -53 80 -79 80 -80 57 58 58 57 -75 75 c-41 41 -79
75 -85 75 -6 0 -34 -24 -63 -53z"/>
<path d="M296 3745 c-55 -19 -107 -65 -132 -116 -50 -101 -101 -557 -74 -656
24 -84 133 -173 214 -173 13 0 16 -13 16 -80 l0 -80 -95 0 c-88 0 -98 -2 -120
-25 l-25 -24 0 -1231 0 -1231 25 -24 24 -25 2431 0 2431 0 24 25 25 24 0 1231
0 1231 -25 24 c-22 23 -32 25 -120 25 l-95 0 0 80 c0 71 2 80 18 80 82 0 187
87 212 175 27 97 -25 555 -74 655 -26 51 -89 104 -144 120 -48 13 -136 13
-184 0 -55 -16 -118 -69 -144 -120 -50 -102 -101 -557 -74 -657 24 -84 133
-173 214 -173 13 0 16 -13 16 -80 l0 -80 -133 0 -133 0 -58 145 c-85 214 -136
255 -316 255 -180 0 -231 -41 -316 -255 l-58 -145 -93 0 -93 0 0 140 c0 113 3
138 14 134 14 -6 116 81 116 100 0 6 -109 120 -242 253 l-243 243 -262 87
-263 88 -263 -88 -262 -87 -243 -243 c-133 -133 -242 -247 -242 -253 0 -19
102 -106 116 -100 11 4 14 -21 14 -134 l0 -140 -240 0 -240 0 0 80 c0 71 2 80
18 80 82 0 187 87 212 175 27 97 -25 555 -74 655 -26 51 -89 104 -144 120 -48
13 -136 13 -184 0 -55 -16 -118 -69 -144 -120 -50 -102 -101 -557 -74 -657 24
-84 133 -173 214 -173 13 0 16 -13 16 -80 l0 -80 -280 0 -280 0 0 80 c0 71 2
80 18 80 82 0 187 87 212 175 27 97 -25 555 -74 655 -26 51 -89 104 -144 120
-52 14 -149 12 -196 -5z m178 -167 c22 -20 29 -42 51 -178 15 -85 29 -207 32
-271 6 -116 6 -117 -20 -143 -25 -25 -31 -26 -137 -26 -106 0 -112 1 -137 26
-26 26 -26 27 -20 142 3 65 17 187 31 272 31 183 42 200 126 200 37 0 55 -6
74 -22z m720 0 c22 -20 29 -42 51 -178 15 -85 29 -207 32 -271 6 -116 6 -117
-20 -143 -25 -25 -31 -26 -137 -26 -106 0 -112 1 -137 26 -26 26 -26 27 -20
142 3 65 17 187 31 272 31 183 42 200 126 200 37 0 55 -6 74 -22z m3600 0 c22
-20 29 -42 51 -178 15 -85 29 -207 32 -271 6 -116 6 -117 -20 -143 -25 -25
-31 -26 -137 -26 -106 0 -112 1 -137 26 -26 26 -26 27 -20 142 3 65 17 187 31
272 31 183 42 200 126 200 37 0 55 -6 74 -22z m-2009 -138 l210 -70 142 -142
143 -143 0 -222 0 -223 -200 0 -200 0 0 175 c0 173 0 176 -25 200 l-24 25
-271 0 -271 0 -24 -25 c-25 -24 -25 -27 -25 -200 l0 -175 -200 0 -200 0 0 223
0 222 143 143 142 142 205 69 c113 38 214 70 225 70 11 1 115 -31 230 -69z
m-65 -680 l0 -120 -160 0 -160 0 0 120 0 120 160 0 160 0 0 -120z m1379 103
c16 -14 101 -199 101 -220 0 -1 -90 -3 -200 -3 -110 0 -200 2 -200 3 0 21 85
206 101 220 16 13 40 17 99 17 59 0 83 -4 99 -17z m-3154 -402 c-32 -20 -644
-369 -682 -390 l-23 -12 0 211 0 210 368 0 c363 0 367 -1 337 -19z m445 15 c0
-3 -828 -787 -1097 -1040 l-53 -49 0 244 1 244 527 302 c480 274 531 301 575
302 26 1 47 -1 47 -3z m290 -1 c0 -3 -1425 -2042 -1436 -2054 -2 -2 -4 164 -4
370 l0 375 696 657 c518 488 703 657 720 657 13 0 24 -2 24 -5z m270 0 c0 -2
-234 -505 -519 -1117 l-520 -1113 -296 -3 c-163 -1 -295 2 -293 6 1 5 353 509
781 1120 775 1106 779 1112 813 1112 19 0 34 -2 34 -5z m268 -7 c-3 -7 -121
-511 -263 -1120 l-259 -1108 -303 0 c-167 0 -303 2 -303 5 0 2 223 482 496
1067 273 585 507 1087 520 1116 24 52 24 52 70 52 33 0 45 -4 42 -12z m262
-1108 l0 -1120 -311 0 c-291 0 -310 1 -305 18 4 13 265 1128 508 2175 l11 47
49 0 48 0 0 -1120z m268 1073 c243 -1047 504 -2162 508 -2175 5 -17 -14 -18
-305 -18 l-311 0 0 1120 0 1120 48 0 49 0 11 -47z m763 -1071 c285 -612 519
-1115 519 -1117 0 -3 -136 -5 -303 -5 l-304 0 -11 48 c-247 1062 -504 2161
-508 2175 -5 16 0 18 41 15 l46 -3 520 -1113z m506 6 c428 -611 780 -1115 781
-1120 2 -4 -130 -7 -293 -6 l-296 3 -520 1113 c-285 612 -519 1115 -519 1117
0 3 15 5 34 5 34 0 38 -6 813 -1112z m167 455 l696 -657 0 -375 c0 -206 -2
-372 -4 -370 -10 11 -1436 2051 -1436 2055 0 2 11 4 24 4 18 0 197 -163 720
-657z m166 355 l530 -303 0 -244 0 -244 -57 54 c-32 30 -291 274 -575 543
-285 269 -518 490 -518 492 0 2 20 4 45 4 41 0 96 -29 575 -302z m530 91 c0
-115 -3 -208 -7 -206 -5 3 -168 96 -363 207 -195 111 -357 204 -359 206 -2 2
161 4 362 4 l367 0 0 -211z"/>
<path d="M2400 3280 l0 -80 160 0 160 0 0 80 0 80 -160 0 -160 0 0 -80z"/>
<path d="M3600 3640 l0 -120 80 0 80 0 0 120 0 120 -80 0 -80 0 0 -120z"/>
</g>
</svg>
