<?xml version="1.0" standalone="no"?>
<!DOCTYPE svg PUBLIC "-//W3C//DTD SVG 20010904//EN"
 "http://www.w3.org/TR/2001/REC-SVG-20010904/DTD/svg10.dtd">
<svg version="1.0" xmlns="http://www.w3.org/2000/svg"
 width="512.000000pt" height="512.000000pt" viewBox="0 0 512.000000 512.000000"
 preserveAspectRatio="xMidYMid meet">

<g transform="translate(0.000000,512.000000) scale(0.100000,-0.100000)"
fill="#000000" stroke="none">
<path d="M1108 4710 c-9 -6 -42 -58 -74 -118 -113 -213 -195 -307 -322 -369
l-76 -38 -203 -5 c-186 -5 -204 -7 -222 -25 -32 -34 -203 -338 -208 -371 -4
-23 0 -37 15 -52 28 -28 197 -80 472 -148 124 -30 239 -58 255 -62 l30 -8 0
-959 0 -960 -201 -3 c-256 -3 -238 11 -242 -192 l-3 -148 -64 -4 c-106 -7
-105 -3 -105 -250 0 -195 1 -209 20 -228 20 -20 33 -20 815 -20 l795 0 0 -153
c0 -148 1 -154 23 -175 l23 -22 725 0 726 0 21 23 c21 22 22 33 22 175 l0 152
325 0 c312 0 326 1 345 20 30 30 27 83 -6 109 -26 20 -38 21 -346 21 l-319 0
3 98 3 97 738 3 737 2 0 -100 0 -100 -244 0 c-231 0 -245 -1 -270 -21 -33 -26
-36 -79 -6 -109 19 -19 33 -20 325 -20 292 0 306 1 325 20 19 19 20 33 20 228
0 247 1 243 -105 250 l-64 4 -3 148 c-4 203 14 189 -242 192 l-201 3 -3 954
c-1 525 1 958 5 962 5 4 80 24 168 44 88 20 230 56 316 80 267 75 298 92 286
155 -7 31 -180 335 -208 365 -18 18 -36 20 -222 25 l-203 5 -76 38 c-127 62
-209 156 -323 370 -36 68 -66 113 -81 119 -17 8 -68 1 -226 -30 -397 -80 -673
-110 -1084 -119 -194 -4 -361 -1 -500 7 -253 16 -250 16 -275 -6 -25 -23 -26
-85 -1 -108 28 -24 170 -36 522 -43 328 -6 567 4 849 38 210 25 548 81 622
105 13 3 29 -19 69 -93 62 -116 92 -161 154 -230 l47 -52 -145 -3 c-125 -3
-147 -6 -165 -22 -27 -25 -28 -79 -1 -106 19 -19 33 -20 483 -20 l462 0 58
-101 c33 -56 55 -104 50 -109 -23 -21 -443 -126 -673 -169 -1162 -218 -2604
-192 -3680 65 -171 41 -362 94 -373 104 -5 5 17 53 50 109 l58 101 463 0 c449
0 463 1 482 20 27 27 26 81 -1 106 -18 16 -40 19 -165 22 l-145 3 47 52 c62
69 92 114 154 230 39 74 56 96 69 93 37 -12 280 -57 334 -63 72 -7 97 10 97
68 0 41 -19 66 -53 73 -484 96 -453 91 -479 76z m22 -1254 c170 -26 463 -60
605 -71 44 -3 99 -8 123 -11 l42 -5 0 -140 0 -139 -485 0 -485 0 0 201 c0 186
1 200 18 195 9 -3 91 -16 182 -30z m3060 -166 l0 -200 -485 0 -485 0 0 139 0
140 43 5 c23 3 123 12 222 21 187 17 486 55 615 79 41 8 78 14 83 15 4 1 7
-89 7 -199z m-1122 -65 l-3 -130 -505 0 -505 0 -3 130 -3 130 511 0 511 0 -3
-130z m1122 -960 l0 -675 -105 0 -104 0 -3 541 -3 541 -24 19 c-22 18 -44 19
-371 19 -327 0 -349 -1 -371 -19 l-24 -19 -3 -541 -3 -541 -109 0 -109 0 -3
541 -3 541 -24 19 c-22 18 -44 19 -371 19 -327 0 -349 -1 -371 -19 l-24 -19
-3 -541 -3 -541 -109 0 -109 0 -3 541 -3 541 -24 19 c-22 18 -44 19 -371 19
-327 0 -349 -1 -371 -19 l-24 -19 -3 -541 -3 -541 -104 0 -105 0 0 675 0 675
1630 0 1630 0 0 -675z m-2722 93 l-3 -203 -85 0 -85 0 -3 203 -2 202 90 0 90
0 -2 -202z m320 0 l-3 -203 -82 -3 -83 -3 0 206 0 205 85 0 85 0 -2 -202z
m692 -3 l0 -206 -82 3 -83 3 -3 203 -2 202 85 0 85 0 0 -205z m328 3 l-3 -203
-82 -3 -83 -3 0 206 0 205 85 0 85 0 -2 -202z m692 -3 l0 -206 -82 3 -83 3 -3
203 -2 202 85 0 85 0 0 -205z m328 3 l-3 -203 -85 0 -85 0 -3 203 -2 202 90 0
90 0 -2 -202z m-2360 -560 l-3 -203 -85 0 -85 0 -3 203 -2 202 90 0 90 0 -2
-202z m320 0 l-3 -203 -82 -3 -83 -3 0 206 0 205 85 0 85 0 -2 -202z m692 -3
l0 -206 -82 3 -83 3 -3 203 -2 202 85 0 85 0 0 -205z m328 3 l-3 -203 -82 -3
-83 -3 0 206 0 205 85 0 85 0 -2 -202z m692 -3 l0 -206 -82 3 -83 3 -3 203 -2
202 85 0 85 0 0 -205z m328 3 l-3 -203 -85 0 -85 0 -3 203 -2 202 90 0 90 0
-2 -202z m-2038 -453 l0 -95 -655 0 -655 0 0 95 0 95 655 0 655 0 0 -95z
m1390 0 l0 -95 -620 0 -620 0 0 95 0 95 620 0 620 0 0 -95z m1460 0 l0 -95
-655 0 -655 0 0 95 0 95 655 0 655 0 0 -95z m-2852 -347 l3 -98 -741 0 -740 0
0 100 0 100 738 -2 737 -3 3 -97z m1392 2 l0 -100 -620 0 -620 0 0 100 0 100
620 0 620 0 0 -100z m0 -350 l0 -100 -620 0 -620 0 0 100 0 100 620 0 620 0 0
-100z"/>
</g>
</svg>
