<?xml version="1.0" standalone="no"?>
<!DOCTYPE svg PUBLIC "-//W3C//DTD SVG 20010904//EN"
 "http://www.w3.org/TR/2001/REC-SVG-20010904/DTD/svg10.dtd">
<svg version="1.0" xmlns="http://www.w3.org/2000/svg"
 width="512.000000pt" height="512.000000pt" viewBox="0 0 512.000000 512.000000"
 preserveAspectRatio="xMidYMid meet">

<g transform="translate(0.000000,512.000000) scale(0.100000,-0.100000)"
fill="#000000" stroke="none">
<path d="M2463 4902 c-243 -87 -273 -424 -48 -543 l45 -24 0 -212 0 -212 -32
-5 c-221 -33 -346 -69 -493 -141 -449 -219 -741 -638 -800 -1147 -5 -45 -10
-58 -23 -58 -37 0 -335 -81 -462 -126 -327 -113 -533 -252 -611 -409 -117
-238 43 -474 440 -646 53 -23 100 -45 104 -49 5 -4 -37 -148 -92 -319 -78
-239 -101 -324 -101 -366 0 -204 201 -351 395 -289 93 29 139 83 385 447 122
180 228 327 235 327 8 0 87 -9 177 -21 90 -11 262 -28 383 -37 l220 -17 27
-294 c15 -161 32 -310 38 -331 14 -54 67 -129 118 -167 154 -117 391 -60 481
115 27 52 30 74 60 395 l26 282 100 7 c214 15 376 30 515 49 80 10 153 19 162
19 11 0 94 -114 238 -327 246 -364 292 -418 385 -447 194 -62 395 85 395 289
0 42 -23 127 -101 365 -55 170 -98 314 -95 318 3 5 27 17 53 27 233 88 426
232 494 371 30 61 34 78 34 149 0 71 -4 89 -33 147 -72 148 -264 285 -544 389
-123 46 -319 104 -440 130 l-107 24 -6 55 c-59 512 -365 944 -819 1155 -145
68 -254 98 -473 131 l-33 5 0 212 1 212 51 30 c161 93 194 314 69 458 -72 81
-213 117 -318 79z m146 -196 c67 -35 65 -143 -4 -174 -51 -23 -107 -7 -131 39
-47 91 44 182 135 135z m199 -1020 c234 -51 426 -153 596 -316 221 -211 348
-466 381 -766 l7 -60 -134 -42 c-209 -65 -396 -105 -644 -139 -184 -25 -724
-25 -908 0 -246 33 -477 84 -679 150 l-98 32 6 60 c33 299 161 555 381 765
177 169 401 284 624 320 41 6 82 13 90 15 38 10 312 -5 378 -19z m-1349 -1392
c182 -53 438 -106 636 -131 200 -26 730 -26 930 0 269 35 667 127 841 195 47
19 50 19 133 0 545 -119 921 -316 921 -483 0 -149 -312 -332 -765 -448 -741
-190 -1763 -231 -2655 -106 -555 78 -1022 232 -1202 398 -95 87 -116 146 -78
220 71 141 368 288 781 390 213 52 197 50 253 29 26 -10 119 -39 205 -64z
m-579 -1053 c36 -10 112 -28 170 -41 58 -12 109 -26 113 -30 9 -8 -354 -552
-398 -598 -13 -14 -39 -26 -63 -29 -37 -5 -45 -2 -77 30 -25 25 -35 44 -35 65
0 17 34 135 76 264 41 128 84 261 95 296 23 71 24 71 119 43z m3479 -43 c11
-35 54 -168 95 -296 42 -129 76 -247 76 -264 0 -21 -10 -40 -35 -65 -32 -32
-40 -35 -77 -30 -24 3 -50 15 -63 29 -44 45 -407 590 -398 597 4 4 53 18 109
30 55 12 129 30 165 40 103 31 104 30 128 -41z m-1629 -175 c-1 -94 -51 -536
-64 -561 -16 -31 -69 -62 -106 -62 -37 0 -90 31 -106 62 -13 25 -63 467 -64
561 l0 27 170 0 170 0 0 -27z"/>
<path d="M1395 2012 c-159 -74 -167 -297 -15 -382 34 -19 59 -25 105 -24 122
0 209 87 209 209 1 75 -31 136 -92 179 -55 39 -146 47 -207 18z"/>
<path d="M3560 2019 c-83 -33 -134 -111 -134 -204 0 -66 15 -104 60 -149 45
-45 83 -60 149 -60 186 -1 284 212 162 351 -18 20 -50 44 -72 54 -43 20 -125
24 -165 8z"/>
<path d="M2462 1889 c-135 -69 -155 -259 -36 -357 67 -55 153 -63 234 -22 139
71 151 273 22 365 -58 40 -156 47 -220 14z"/>
</g>
</svg>
